solid OpenSCAD_Model
  facet normal -1 0 0
    outer loop
      vertex -75 -90 0
      vertex -75 -90 20
      vertex -75 -85 0
    endloop
  endfacet
  facet normal -1 0 0
    outer loop
      vertex -75 -85 0
      vertex -75 -90 20
      vertex -75 -85 20
    endloop
  endfacet
  facet normal 0 -1 0
    outer loop
      vertex -75 -90 20
      vertex -75 -90 0
      vertex -65 -90 0
    endloop
  endfacet
  facet normal 0 -1 0
    outer loop
      vertex -65 -90 20
      vertex -75 -90 20
      vertex -65 -90 0
    endloop
  endfacet
  facet normal 0 0 -1
    outer loop
      vertex -75 -90 0
      vertex -75 -85 0
      vertex -65 -90 0
    endloop
  endfacet
  facet normal 0 0 -1
    outer loop
      vertex -65 -90 0
      vertex -75 -85 0
      vertex -65 -85 0
    endloop
  endfacet
  facet normal 0 0 -1
    outer loop
      vertex -65 -85 0
      vertex -60 100 0
      vertex -65 -90 0
    endloop
  endfacet
  facet normal 0 0 -1
    outer loop
      vertex -65 85 0
      vertex -75 85 0
      vertex -75 90 0
    endloop
  endfacet
  facet normal 0 0 -1
    outer loop
      vertex -65 85 0
      vertex -75 90 0
      vertex -65 90 0
    endloop
  endfacet
  facet normal 0 0 -1
    outer loop
      vertex -65 85 0
      vertex -60 100 0
      vertex -65 -85 0
    endloop
  endfacet
  facet normal 0 0 -1
    outer loop
      vertex -65 90 0
      vertex -65 100 0
      vertex -60 100 0
    endloop
  endfacet
  facet normal 0 0 -1
    outer loop
      vertex -65 90 0
      vertex -60 100 0
      vertex -65 85 0
    endloop
  endfacet
  facet normal 0 0 -1
    outer loop
      vertex -65 -90 0
      vertex -60 100 0
      vertex -60 90 0
    endloop
  endfacet
  facet normal 0 0 -1
    outer loop
      vertex -65 -90 0
      vertex -60 90 0
      vertex 60 90 0
    endloop
  endfacet
  facet normal 0 0 -1
    outer loop
      vertex 60 90 0
      vertex 60 100 0
      vertex 65 100 0
    endloop
  endfacet
  facet normal 0 0 -1
    outer loop
      vertex 60 90 0
      vertex 65 100 0
      vertex 65 90 0
    endloop
  endfacet
  facet normal 0 0 -1
    outer loop
      vertex 60 90 0
      vertex 65 90 0
      vertex -65 -90 0
    endloop
  endfacet
  facet normal 0 0 -1
    outer loop
      vertex 65 -85 0
      vertex -65 -90 0
      vertex 65 85 0
    endloop
  endfacet
  facet normal 0 0 -1
    outer loop
      vertex 65 90 0
      vertex 75 90 0
      vertex 65 85 0
    endloop
  endfacet
  facet normal 0 0 -1
    outer loop
      vertex 65 90 0
      vertex 65 85 0
      vertex -65 -90 0
    endloop
  endfacet
  facet normal 0 0 -1
    outer loop
      vertex 60 -90 0
      vertex 65 -100 0
      vertex 60 -100 0
    endloop
  endfacet
  facet normal 0 0 -1
    outer loop
      vertex -65 -90 0
      vertex 65 -85 0
      vertex 75 -85 0
    endloop
  endfacet
  facet normal 0 0 -1
    outer loop
      vertex 65 -90 0
      vertex 75 -85 0
      vertex 75 -90 0
    endloop
  endfacet
  facet normal 0 0 -1
    outer loop
      vertex -65 -90 0
      vertex 75 -85 0
      vertex -60 -90 0
    endloop
  endfacet
  facet normal 0 0 -1
    outer loop
      vertex 65 85 0
      vertex 75 90 0
      vertex 75 85 0
    endloop
  endfacet
  facet normal 0 0 -1
    outer loop
      vertex 65 -90 0
      vertex 65 -100 0
      vertex 60 -90 0
    endloop
  endfacet
  facet normal 0 0 -1
    outer loop
      vertex 65 -90 0
      vertex 60 -90 0
      vertex 75 -85 0
    endloop
  endfacet
  facet normal 0 0 -1
    outer loop
      vertex -60 -100 0
      vertex -65 -90 0
      vertex -60 -90 0
    endloop
  endfacet
  facet normal 0 0 -1
    outer loop
      vertex 60 -90 0
      vertex -60 -90 0
      vertex 75 -85 0
    endloop
  endfacet
  facet normal 0 0 -1
    outer loop
      vertex -65 -90 0
      vertex -60 -100 0
      vertex -65 -100 0
    endloop
  endfacet
  facet normal 0 1 0
    outer loop
      vertex -75 -85 0
      vertex -75 -85 20
      vertex -65 -85 0
    endloop
  endfacet
  facet normal 0 1 0
    outer loop
      vertex -65 -85 0
      vertex -75 -85 20
      vertex -65 -85 20
    endloop
  endfacet
  facet normal 0 0 1
    outer loop
      vertex 60 -90 20
      vertex 65 -90 20
      vertex -75 -85 20
    endloop
  endfacet
  facet normal 0 0 1
    outer loop
      vertex -75 -85 20
      vertex -75 -90 20
      vertex -65 -90 20
    endloop
  endfacet
  facet normal 0 0 1
    outer loop
      vertex -60 -90 20
      vertex -75 -85 20
      vertex -65 -90 20
    endloop
  endfacet
  facet normal 0 0 1
    outer loop
      vertex -65 -100 20
      vertex -60 -100 20
      vertex -65 -90 20
    endloop
  endfacet
  facet normal 0 0 1
    outer loop
      vertex -60 -100 20
      vertex -60 -90 20
      vertex -65 -90 20
    endloop
  endfacet
  facet normal 0 0 1
    outer loop
      vertex -60 -90 20
      vertex 60 -90 20
      vertex -75 -85 20
    endloop
  endfacet
  facet normal 0 0 1
    outer loop
      vertex 60 -100 20
      vertex 65 -100 20
      vertex 60 -90 20
    endloop
  endfacet
  facet normal 0 0 1
    outer loop
      vertex 65 -100 20
      vertex 65 -90 20
      vertex 60 -90 20
    endloop
  endfacet
  facet normal 0 0 1
    outer loop
      vertex 65 -90 20
      vertex 75 -90 20
      vertex -75 -85 20
    endloop
  endfacet
  facet normal 0 0 1
    outer loop
      vertex 75 -90 20
      vertex 65 -85 20
      vertex 60 -85 20
    endloop
  endfacet
  facet normal 0 0 1
    outer loop
      vertex 75 -90 20
      vertex 75 -85 20
      vertex 65 -85 20
    endloop
  endfacet
  facet normal 0 0 1
    outer loop
      vertex 65 85 20
      vertex 75 85 20
      vertex 75 90 20
    endloop
  endfacet
  facet normal 0 0 1
    outer loop
      vertex 60 90 20
      vertex 65 90 20
      vertex 65 100 20
    endloop
  endfacet
  facet normal 0 0 1
    outer loop
      vertex 65 85 20
      vertex 75 90 20
      vertex 65 90 20
    endloop
  endfacet
  facet normal 0 0 1
    outer loop
      vertex 60 85 20
      vertex 65 90 20
      vertex 60 90 20
    endloop
  endfacet
  facet normal 0 0 1
    outer loop
      vertex -65 90 20
      vertex -60 100 20
      vertex -65 100 20
    endloop
  endfacet
  facet normal 0 0 1
    outer loop
      vertex -65 85 20
      vertex -60 85 20
      vertex -60 90 20
    endloop
  endfacet
  facet normal 0 0 1
    outer loop
      vertex -65 85 20
      vertex -60 100 20
      vertex -65 90 20
    endloop
  endfacet
  facet normal 0 0 1
    outer loop
      vertex -75 85 20
      vertex -65 85 20
      vertex -65 90 20
    endloop
  endfacet
  facet normal 0 0 1
    outer loop
      vertex 75 -90 20
      vertex -65 -85 20
      vertex -75 -85 20
    endloop
  endfacet
  facet normal 0 0 1
    outer loop
      vertex 75 -90 20
      vertex -60 -85 20
      vertex -65 -85 20
    endloop
  endfacet
  facet normal 0 0 1
    outer loop
      vertex -65 85 20
      vertex -60 90 20
      vertex -60 100 20
    endloop
  endfacet
  facet normal 0 0 1
    outer loop
      vertex -60 -85 20
      vertex -60 85 20
      vertex -65 -85 20
    endloop
  endfacet
  facet normal 0 0 1
    outer loop
      vertex 75 -90 20
      vertex 60 -85 20
      vertex -60 -85 20
    endloop
  endfacet
  facet normal 0 0 1
    outer loop
      vertex 65 -85 20
      vertex 65 85 20
      vertex 60 -85 20
    endloop
  endfacet
  facet normal 0 0 1
    outer loop
      vertex -65 90 20
      vertex -75 90 20
      vertex -75 85 20
    endloop
  endfacet
  facet normal 0 0 1
    outer loop
      vertex 60 100 20
      vertex 60 90 20
      vertex 65 100 20
    endloop
  endfacet
  facet normal 0 0 1
    outer loop
      vertex 60 90 20
      vertex -60 90 20
      vertex -60 85 20
    endloop
  endfacet
  facet normal 0 0 1
    outer loop
      vertex -60 85 20
      vertex 60 85 20
      vertex 60 90 20
    endloop
  endfacet
  facet normal 0 0 1
    outer loop
      vertex 60 85 20
      vertex 65 85 20
      vertex 65 90 20
    endloop
  endfacet
  facet normal 0 0 1
    outer loop
      vertex 60 85 20
      vertex 60 -85 20
      vertex 65 85 20
    endloop
  endfacet
  facet normal 0 0 1
    outer loop
      vertex -65 85 20
      vertex -65 -85 20
      vertex -60 85 20
    endloop
  endfacet
  facet normal -1 0 0
    outer loop
      vertex -65 -100 0
      vertex -65 -100 20
      vertex -65 -90 0
    endloop
  endfacet
  facet normal -1 0 0
    outer loop
      vertex -65 -90 0
      vertex -65 -100 20
      vertex -65 -90 20
    endloop
  endfacet
  facet normal 0 -1 0
    outer loop
      vertex -65 -100 20
      vertex -65 -100 0
      vertex -60 -100 0
    endloop
  endfacet
  facet normal 0 -1 0
    outer loop
      vertex -60 -100 20
      vertex -65 -100 20
      vertex -60 -100 0
    endloop
  endfacet
  facet normal 1 0 0
    outer loop
      vertex -60 -100 20
      vertex -60 -100 0
      vertex -60 -90 0
    endloop
  endfacet
  facet normal 1 0 0
    outer loop
      vertex -60 -90 20
      vertex -60 -100 20
      vertex -60 -90 0
    endloop
  endfacet
  facet normal 0 -1 0
    outer loop
      vertex -60 -90 20
      vertex -60 -90 0
      vertex 60 -90 0
    endloop
  endfacet
  facet normal 0 -1 0
    outer loop
      vertex 60 -90 20
      vertex -60 -90 20
      vertex 60 -90 0
    endloop
  endfacet
  facet normal -1 0 0
    outer loop
      vertex 60 -100 0
      vertex 60 -100 20
      vertex 60 -90 0
    endloop
  endfacet
  facet normal -1 0 0
    outer loop
      vertex 60 -90 0
      vertex 60 -100 20
      vertex 60 -90 20
    endloop
  endfacet
  facet normal 0 -1 0
    outer loop
      vertex 60 -100 20
      vertex 60 -100 0
      vertex 65 -100 0
    endloop
  endfacet
  facet normal 0 -1 0
    outer loop
      vertex 65 -100 20
      vertex 60 -100 20
      vertex 65 -100 0
    endloop
  endfacet
  facet normal 1 0 0
    outer loop
      vertex 65 -100 20
      vertex 65 -100 0
      vertex 65 -90 0
    endloop
  endfacet
  facet normal 1 0 0
    outer loop
      vertex 65 -90 20
      vertex 65 -100 20
      vertex 65 -90 0
    endloop
  endfacet
  facet normal 0 -1 0
    outer loop
      vertex 65 -90 20
      vertex 65 -90 0
      vertex 75 -90 0
    endloop
  endfacet
  facet normal 0 -1 0
    outer loop
      vertex 75 -90 20
      vertex 65 -90 20
      vertex 75 -90 0
    endloop
  endfacet
  facet normal 1 0 0
    outer loop
      vertex 75 -90 20
      vertex 75 -90 0
      vertex 75 -85 0
    endloop
  endfacet
  facet normal 1 0 0
    outer loop
      vertex 75 -85 20
      vertex 75 -90 20
      vertex 75 -85 0
    endloop
  endfacet
  facet normal 0 1 0
    outer loop
      vertex 65 -85 0
      vertex 65 -85 20
      vertex 75 -85 0
    endloop
  endfacet
  facet normal 0 1 0
    outer loop
      vertex 75 -85 0
      vertex 65 -85 20
      vertex 75 -85 20
    endloop
  endfacet
  facet normal 1 0 0
    outer loop
      vertex 65 -85 20
      vertex 65 -85 0
      vertex 65 85 0
    endloop
  endfacet
  facet normal 1 0 0
    outer loop
      vertex 65 85 20
      vertex 65 -85 20
      vertex 65 85 0
    endloop
  endfacet
  facet normal 0 -1 0
    outer loop
      vertex 65 85 20
      vertex 65 85 0
      vertex 75 85 0
    endloop
  endfacet
  facet normal 0 -1 0
    outer loop
      vertex 75 85 20
      vertex 65 85 20
      vertex 75 85 0
    endloop
  endfacet
  facet normal 1 0 0
    outer loop
      vertex 75 85 20
      vertex 75 85 0
      vertex 75 90 0
    endloop
  endfacet
  facet normal 1 0 0
    outer loop
      vertex 75 90 20
      vertex 75 85 20
      vertex 75 90 0
    endloop
  endfacet
  facet normal 0 1 0
    outer loop
      vertex 65 90 0
      vertex 65 90 20
      vertex 75 90 0
    endloop
  endfacet
  facet normal 0 1 0
    outer loop
      vertex 75 90 0
      vertex 65 90 20
      vertex 75 90 20
    endloop
  endfacet
  facet normal 1 0 0
    outer loop
      vertex 65 90 20
      vertex 65 90 0
      vertex 65 100 0
    endloop
  endfacet
  facet normal 1 0 0
    outer loop
      vertex 65 100 20
      vertex 65 90 20
      vertex 65 100 0
    endloop
  endfacet
  facet normal 0 1 0
    outer loop
      vertex 60 100 0
      vertex 60 100 20
      vertex 65 100 0
    endloop
  endfacet
  facet normal 0 1 0
    outer loop
      vertex 65 100 0
      vertex 60 100 20
      vertex 65 100 20
    endloop
  endfacet
  facet normal -1 0 0
    outer loop
      vertex 60 90 0
      vertex 60 90 20
      vertex 60 100 0
    endloop
  endfacet
  facet normal -1 0 0
    outer loop
      vertex 60 100 0
      vertex 60 90 20
      vertex 60 100 20
    endloop
  endfacet
  facet normal 0 1 0
    outer loop
      vertex -60 90 0
      vertex -60 90 20
      vertex 60 90 0
    endloop
  endfacet
  facet normal 0 1 0
    outer loop
      vertex 60 90 0
      vertex -60 90 20
      vertex 60 90 20
    endloop
  endfacet
  facet normal 1 0 0
    outer loop
      vertex -60 90 20
      vertex -60 90 0
      vertex -60 100 0
    endloop
  endfacet
  facet normal 1 0 0
    outer loop
      vertex -60 100 20
      vertex -60 90 20
      vertex -60 100 0
    endloop
  endfacet
  facet normal 0 1 0
    outer loop
      vertex -65 100 0
      vertex -65 100 20
      vertex -60 100 0
    endloop
  endfacet
  facet normal 0 1 0
    outer loop
      vertex -60 100 0
      vertex -65 100 20
      vertex -60 100 20
    endloop
  endfacet
  facet normal -1 0 0
    outer loop
      vertex -65 90 0
      vertex -65 90 20
      vertex -65 100 0
    endloop
  endfacet
  facet normal -1 0 0
    outer loop
      vertex -65 100 0
      vertex -65 90 20
      vertex -65 100 20
    endloop
  endfacet
  facet normal 0 1 0
    outer loop
      vertex -75 90 0
      vertex -75 90 20
      vertex -65 90 0
    endloop
  endfacet
  facet normal 0 1 0
    outer loop
      vertex -65 90 0
      vertex -75 90 20
      vertex -65 90 20
    endloop
  endfacet
  facet normal -1 0 0
    outer loop
      vertex -75 85 0
      vertex -75 85 20
      vertex -75 90 0
    endloop
  endfacet
  facet normal -1 0 0
    outer loop
      vertex -75 90 0
      vertex -75 85 20
      vertex -75 90 20
    endloop
  endfacet
  facet normal 0 -1 0
    outer loop
      vertex -75 85 20
      vertex -75 85 0
      vertex -65 85 0
    endloop
  endfacet
  facet normal 0 -1 0
    outer loop
      vertex -65 85 20
      vertex -75 85 20
      vertex -65 85 0
    endloop
  endfacet
  facet normal -1 0 0
    outer loop
      vertex -65 -85 0
      vertex -65 -85 20
      vertex -65 85 0
    endloop
  endfacet
  facet normal -1 0 0
    outer loop
      vertex -65 85 0
      vertex -65 -85 20
      vertex -65 85 20
    endloop
  endfacet
  facet normal 1 0 0
    outer loop
      vertex -60 -85 20
      vertex -60 -85 5
      vertex -60 85 5
    endloop
  endfacet
  facet normal 1 0 0
    outer loop
      vertex -60 85 20
      vertex -60 -85 20
      vertex -60 85 5
    endloop
  endfacet
  facet normal 0 1 0
    outer loop
      vertex -60 -85 5
      vertex -60 -85 20
      vertex 60 -85 5
    endloop
  endfacet
  facet normal 0 1 0
    outer loop
      vertex 60 -85 5
      vertex -60 -85 20
      vertex 60 -85 20
    endloop
  endfacet
  facet normal -1 0 0
    outer loop
      vertex 60 -85 5
      vertex 60 -85 20
      vertex 60 85 5
    endloop
  endfacet
  facet normal -1 0 0
    outer loop
      vertex 60 85 5
      vertex 60 -85 20
      vertex 60 85 20
    endloop
  endfacet
  facet normal 0 -1 0
    outer loop
      vertex -60 85 20
      vertex -60 85 5
      vertex 60 85 5
    endloop
  endfacet
  facet normal 0 -1 0
    outer loop
      vertex 60 85 20
      vertex -60 85 20
      vertex 60 85 5
    endloop
  endfacet
  facet normal 0 0 1
    outer loop
      vertex -60 85 5
      vertex -60 -85 5
      vertex 60 -85 5
    endloop
  endfacet
  facet normal 0 0 1
    outer loop
      vertex 60 85 5
      vertex -60 85 5
      vertex 60 -85 5
    endloop
  endfacet
endsolid OpenSCAD_Model
